<?xml version="1.0" encoding="UTF-8"?>
<svg id="Camada_2" data-name="Camada 2" xmlns="http://www.w3.org/2000/svg" viewBox="0 0 110.62 42.77">
  <defs>
    <style>
      .cls-1 {
        fill: #ffffff;
        stroke-width: 0px;
      }
    </style>
  </defs>
  <g id="Camada_1-2" data-name="Camada 1">
    <g>
      <g>
        <path class="cls-1" d="M21.72,17.98h-8.76v2.91h7.18v2.67h-7.18v2.95h-2.85v-11.52h11.61v3Z"/>
        <path class="cls-1" d="M31.92,14.99h2.85v5.15c0,1.15-.27,2.22-.81,3.19-.54.98-1.28,1.75-2.21,2.32-.93.57-1.94.86-3.04.86s-2.12-.29-3.04-.86c-.93-.57-1.66-1.34-2.21-2.32-.54-.98-.81-2.04-.81-3.19v-5.15h2.85v5.15c0,.93.31,1.73.94,2.39.63.66,1.38.99,2.27.99.44,0,.85-.09,1.25-.26.4-.17.74-.41,1.03-.72s.52-.66.69-1.09c.17-.42.25-.86.25-1.31v-5.15Z"/>
        <path class="cls-1" d="M46.66,14.99v3h-4.12v8.53h-2.85v-8.53h-4.1v-3h11.06Z"/>
        <path class="cls-1" d="M59.4,17.98h-8.76v1.43h7.86v2.67h-7.86v1.43h8.76v3h-11.61v-11.52h11.61v3Z"/>
        <path class="cls-1" d="M16.96,34.36c.51,0,.98.13,1.41.4.43.27.78.63,1.03,1.08.25.46.38.96.38,1.5,0,.82-.28,1.52-.83,2.1-.55.58-1.22.87-1.99.87h-6.91v-2.51h6.78c.16,0,.29-.06.4-.17s.16-.26.16-.43-.05-.31-.16-.43-.24-.17-.4-.17h-4.4c-.78,0-1.44-.29-1.99-.87-.55-.58-.83-1.28-.83-2.11s.28-1.52.83-2.1c.55-.58,1.22-.87,1.99-.87h6.91v2.51h-6.78c-.16,0-.29.06-.4.17-.11.12-.16.26-.16.43s.05.31.16.43c.11.12.24.17.4.17h4.4Z"/>
        <path class="cls-1" d="M25.19,33.16c-.61,0-1.13.23-1.56.68-.43.45-.64,1-.64,1.64s.21,1.19.64,1.64c.43.45.95.68,1.56.68h4.11v2.51h-4.11c-.83,0-1.6-.22-2.3-.65s-1.26-1.02-1.67-1.76c-.41-.74-.62-1.55-.62-2.42s.21-1.68.62-2.42c.41-.74.97-1.33,1.67-1.76s1.47-.65,2.3-.65h4.11v2.51h-4.11Z"/>
        <path class="cls-1" d="M38.06,40.31v-3.55h-5.12v3.55h-2.39v-9.66h2.39v3.89h5.12v-3.89h2.39v9.66h-2.39Z"/>
        <path class="cls-1" d="M51.03,39.33c-.38.4-.82.66-1.3.79-.48.13-1.05.19-1.69.19-.12,0-.31,0-.56-.01h-.6c-.44,0-.77,0-1.01-.01-.24,0-.57-.04-1-.1-.43-.06-.77-.15-1.02-.26-.25-.11-.54-.29-.86-.52-.32-.23-.57-.52-.75-.86-.18-.34-.33-.76-.45-1.28-.13-.52-.19-1.12-.19-1.79,0-2.09.6-3.5,1.8-4.22.19-.11.4-.21.64-.29.23-.08.45-.15.64-.19.2-.04.44-.07.73-.09s.53-.03.7-.03.43,0,.76,0c.44,0,.77,0,1.01.01.24,0,.57.04,1,.1.43.06.77.15,1.02.26.25.12.54.29.86.52.32.24.57.52.75.86.18.34.33.76.45,1.28s.19,1.12.19,1.79c0,1.8-.37,3.09-1.12,3.87ZM49.78,35.47c0-.34-.02-.63-.05-.86s-.07-.44-.1-.61-.12-.31-.26-.41-.25-.18-.35-.25c-.1-.06-.28-.11-.55-.13-.27-.02-.5-.04-.68-.04s-.49,0-.91,0-.72,0-.94,0c-.21,0-.46.03-.73.07-.27.04-.48.11-.63.2-.39.24-.59.92-.59,2.04,0,.27,0,.5.03.69s.04.37.06.53c.02.16.07.3.15.41.08.11.14.21.19.29s.15.15.3.2.28.09.37.12.26.05.49.06c.24.01.43.02.58.02h.72c.15,0,.36,0,.64.01h.77c.24,0,.45-.02.65-.06.2-.04.33-.1.41-.19.28-.29.42-.98.42-2.08Z"/>
        <path class="cls-1" d="M62.33,39.33c-.38.4-.82.66-1.3.79-.48.13-1.05.19-1.69.19-.12,0-.31,0-.56-.01h-.6c-.44,0-.77,0-1.01-.01-.24,0-.57-.04-1-.1-.43-.06-.77-.15-1.02-.26-.25-.11-.54-.29-.86-.52-.32-.23-.57-.52-.75-.86-.18-.34-.33-.76-.45-1.28-.13-.52-.19-1.12-.19-1.79,0-2.09.6-3.5,1.8-4.22.19-.11.4-.21.64-.29.23-.08.45-.15.64-.19.2-.04.44-.07.73-.09s.53-.03.7-.03.43,0,.76,0c.44,0,.77,0,1.01.01.24,0,.57.04,1,.1.43.06.77.15,1.02.26.25.12.54.29.86.52.32.24.57.52.75.86.18.34.33.76.45,1.28s.19,1.12.19,1.79c0,1.8-.37,3.09-1.12,3.87ZM61.07,35.47c0-.34-.02-.63-.05-.86s-.07-.44-.1-.61-.12-.31-.26-.41-.25-.18-.35-.25c-.1-.06-.28-.11-.55-.13-.27-.02-.5-.04-.68-.04s-.49,0-.91,0-.72,0-.94,0c-.21,0-.46.03-.73.07-.27.04-.48.11-.63.2-.39.24-.59.92-.59,2.04,0,.27,0,.5.03.69s.04.37.06.53c.02.16.07.3.15.41.08.11.14.21.19.29s.15.15.3.2.28.09.37.12.26.05.49.06c.24.01.43.02.58.02h.72c.15,0,.36,0,.64.01h.77c.24,0,.45-.02.65-.06.2-.04.33-.1.41-.19.28-.29.42-.98.42-2.08Z"/>
        <path class="cls-1" d="M67,37.8h5.08v2.51h-7.47v-9.66h2.39v7.15Z"/>
      </g>
      <g>
        <g>
          <path class="cls-1" d="M78.71,23.82c1.16-.2,2.27-.55,3.38-1.02.62-.26,1.3-.4,1.98-.51V0H0v41.33h5.78V4.15h72.52v19.66c.14.02.27.03.41.01Z"/>
          <path class="cls-1" d="M80.75,25.91c-.35.04-.66.2-.76.67-.17.79-.93,1.28-1.7,1.09v13.66h5.78v-15.42c-.33,0-.66-.04-1-.12-.73-.16-1.55.02-2.32.12Z"/>
          <path class="cls-1" d="M76.9,23.67c-.24.08-.55-.03-.83-.06-.03.06-.06.13-.09.19.16.05.32.09.48.14-.04.05-.07.11-.11.16-.12.04-.23.11-.36.13-.87.1-1.75.16-2.62.28-.27.04-.53.22-.79.34.14.26.23.56.43.77.25.27.56.53.89.67.34.14.73.17,1.11.19.9.04,1.83.04,2.49.73.25.25.52.4.79.47v-3.86c-.45-.08-.9-.32-1.39-.15Z"/>
          <path class="cls-1" d="M109.54,18.33c-.5-.21-1.03-.32-1.51-.55-1.65-.79-3.18-1.88-5.09-2.16.04-.71-.35-1.12-.96-1.22-2.74-.43-5.45-1.41-8.28-.58-.07.02-.16-.03-.35-.06.05-.39.11-.76.15-1.13.01-.12.02-.25,0-.38-.13-1.41-2.08-2.49-3.53-1.7-.61.34-1.17.8-1.1,1.62.07.75.15,1.5.28,2.23.08.43.27.84.41,1.29-.56.41-.84.46-1.44.79-.84.45-.87,1.58-1.92,1.71-.77.09-1.24,1.24-1,1.98.14.43.84.35,1.67.21,1.41-.23,1.79-.36,3.11-.93.13-.05.44.05.51.17.36.63.67,1.29,1.07,2.08-.86.05-1.67.25-2.4.09-.77-.17-1.44-.14-2.15.12-.19.07-.42.01-.63.05-.76.13-1.55.21-2.31.34v3.61c1.24.04,2.39-.34,3.55-.79.28-.11.65-.18.91-.08,1.44.53,2.86,1.11,4.28,1.7.15.06.32.27.32.41.01.6.1,1.1.93,1.03-.33.8-.56,1.54-.93,2.21-.2.36-.29.61-.17,1.01.13.44.24.93.18,1.38-.19,1.26-.5,2.5-.72,3.76-.15.82.29,1.76,1.07,2.03,1.07.37,2.19.68,3.31.84.89.13,1.82.02,2.73-.03.57-.03,1.17-.31,1.7-.21,1.45.28,2.95.52,3.88,1.93.33.5.77.94,1.2,1.37.18.17.48.21.72.31.1-.27.21-.53.29-.81.04-.13.02-.29,0-.43-.08-.59-.12-1.19-.26-1.76-.17-.73-.55-1.44-.61-2.17-.08-1.07-.58-1.71-1.7-1.47-1.54.33-3.15.55-4.69-.04-1.01-.39-2.03-.42-3.07-.35-.16.01-.32.02-.44.02.35-.77.75-1.49,1-2.26.25-.75.49-1.37,1.13-1.98,2.31-2.2,2.97-4.82,1.87-8.02-.06-.17,0-.39.02-.59.02-.39.13-.81.04-1.17-.12-.5-.4-.96-.62-1.43-.41-.89-.83-1.78-1.32-2.84,1.79,0,3.41-.05,4.98.47.57.19,1.16.34,1.73.55,1.04.38,2.22.55,2.7,1.79.05.12.27.19.41.26.41.22.81.45,1.23.66.13.06.28.11.41.09.06-.01.11-.2.14-.31.05-.22.06-.46.13-.68.41-1.16.27-1.49-.87-1.96Z"/>
        </g>
        <path class="cls-1" d="M65.26,18.05c-.06-1.47,1.06-2.69,2.5-2.74,1.38-.04,2.8,1.07,2.85,2.21.08,1.8-.99,3.08-2.6,3.14-1.57.05-2.69-1.01-2.76-2.61Z"/>
      </g>
    </g>
  </g>
</svg>