<?xml version="1.0" encoding="UTF-8"?>
<svg id="Camada_2" data-name="Camada 2" xmlns="http://www.w3.org/2000/svg" viewBox="0 0 144.99 39.93">
  <defs>
    <style>
      .cls-1 {
        fill: #1d1d1b;
        stroke-width: 0px;
      }
    </style>
  </defs>
  <g id="Camada_1-2" data-name="Camada 1">
    <path class="cls-1" d="M47.01,29.06c-.25,0-.49.09-.72.26-.23.17-.38.4-.45.66-.04.15-.04.3,0,.45.04.15.12.26.24.34.12.08.26.12.43.12h7.01c1.26,0,2.21.44,2.86,1.32.64.88.8,1.95.46,3.2s-1.06,2.32-2.19,3.2c-1.12.88-2.3,1.32-3.55,1.32h-11.07l1.03-3.82h10.86c.25,0,.49-.09.71-.26.22-.17.37-.39.44-.65s.04-.48-.09-.65c-.13-.17-.33-.26-.58-.26h-7.01c-1.25,0-2.2-.44-2.85-1.32s-.81-1.95-.47-3.2,1.06-2.32,2.18-3.2,2.3-1.32,3.55-1.32h11.07l-1.03,3.82h-10.84Z"/>
    <path class="cls-1" d="M67.21,29.06c-.97,0-1.89.34-2.77,1.03-.88.69-1.45,1.52-1.7,2.5-.17.64-.17,1.24,0,1.77s.48.97.93,1.28c.46.32,1,.47,1.65.47h6.57l-1.03,3.82h-6.57c-1.33,0-2.47-.33-3.42-.99-.95-.66-1.6-1.55-1.95-2.68-.35-1.13-.35-2.36,0-3.69.35-1.33,1.01-2.56,1.97-3.69s2.1-2.02,3.4-2.68c1.3-.66,2.62-.99,3.95-.99h6.57l-1.03,3.82h-6.57Z"/>
    <path class="cls-1" d="M88.96,25.23h3.82l-3.95,14.7h-3.82l1.45-5.4h-8.19l-1.45,5.4h-3.82l3.95-14.7h3.82l-1.6,5.92h8.19l1.6-5.92Z"/>
    <path class="cls-1" d="M106.39,25.23c1.33,0,2.47.33,3.43.99s1.61,1.55,1.96,2.68c.35,1.13.35,2.36-.01,3.69s-1.02,2.56-1.97,3.69c-.96,1.13-2.09,2.02-3.39,2.68-1.3.66-2.62.99-3.95.99h-4.39c-1.33,0-2.47-.33-3.42-.99-.95-.66-1.6-1.55-1.95-2.68-.35-1.13-.35-2.36,0-3.69.35-1.33,1.01-2.56,1.97-3.69s2.1-2.02,3.4-2.68c1.3-.66,2.62-.99,3.95-.99h4.37ZM106.26,35.08c.88-.69,1.45-1.52,1.71-2.5.27-.98.14-1.81-.37-2.5-.51-.69-1.25-1.03-2.22-1.03h-4.39c-.97,0-1.89.34-2.77,1.03-.88.69-1.45,1.52-1.7,2.5-.17.64-.17,1.24,0,1.77s.48.97.93,1.28c.46.32,1,.47,1.65.47h4.39c.97,0,1.89-.34,2.76-1.03Z"/>
    <path class="cls-1" d="M126.68,25.23c1.33,0,2.47.33,3.43.99s1.61,1.55,1.96,2.68c.35,1.13.35,2.36-.01,3.69s-1.02,2.56-1.97,3.69c-.96,1.13-2.09,2.02-3.39,2.68-1.3.66-2.62.99-3.95.99h-4.39c-1.33,0-2.47-.33-3.42-.99-.95-.66-1.6-1.55-1.95-2.68-.35-1.13-.35-2.36,0-3.69.35-1.33,1.01-2.56,1.97-3.69s2.1-2.02,3.4-2.68c1.3-.66,2.62-.99,3.95-.99h4.37ZM126.54,35.08c.88-.69,1.45-1.52,1.71-2.5.27-.98.14-1.81-.37-2.5-.51-.69-1.25-1.03-2.22-1.03h-4.39c-.97,0-1.89.34-2.77,1.03-.88.69-1.45,1.52-1.7,2.5-.17.64-.17,1.24,0,1.77s.48.97.93,1.28c.46.32,1,.47,1.65.47h4.39c.97,0,1.89-.34,2.76-1.03Z"/>
    <path class="cls-1" d="M136.86,36.11h8.13l-1.03,3.82h-11.95l3.95-14.7h3.82l-2.92,10.88Z"/>
    <polygon class="cls-1" points="0 23.78 4.78 12.81 16.89 13.71 19.26 25.87 8.93 31.53 0 23.78"/>
    <path class="cls-1" d="M16.66.32l4.86,8.54,9.06,3.96c.13-2.9.41-4.7-3.09-7.88S20.46-.93,16.66.32Z"/>
    <path class="cls-1" d="M32.15,21.85l-6.65,7.23-1,9.83c2.8-.76,4.6-1.04,6.56-5.34s3.44-8.48,1.09-11.72Z"/>
    <path class="cls-1" d="M40.03,3.52v17.99h70.29V3.52H40.03ZM57.4,8.99h-11.76v3.72h9.64v3.4h-9.64v3.76h-3.82V5.17h15.58v3.82ZM74.91,11.74c0,1.47-.36,2.83-1.09,4.07-.73,1.25-1.71,2.23-2.96,2.96s-2.61,1.09-4.08,1.09-2.84-.36-4.08-1.09-2.23-1.71-2.96-2.96c-.73-1.25-1.09-2.6-1.09-4.07v-6.57h3.82v6.57c0,1.19.42,2.21,1.26,3.04.84.84,1.85,1.26,3.04,1.26.59,0,1.15-.11,1.68-.34.53-.22.99-.53,1.39-.91.39-.39.7-.85.92-1.39.22-.54.34-1.1.34-1.67v-6.57h3.82v6.57ZM90.87,8.99h-5.52v10.88h-3.82v-10.88h-5.5v-3.82h14.85v3.82ZM107.97,8.99h-11.76v1.83h10.54v3.4h-10.54v1.83h11.76v3.82h-15.58V5.17h15.58v3.82Z"/>
  </g>
</svg>